<?xml version="1.0" encoding="utf-8"?>
<!-- Generator: Adobe Illustrator 15.0.0, SVG Export Plug-In . SVG Version: 6.00 Build 0)  -->
<!DOCTYPE svg PUBLIC "-//W3C//DTD SVG 1.1//EN" "http://www.w3.org/Graphics/SVG/1.1/DTD/svg11.dtd">
<svg version="1.1" id="Layer_1" xmlns="http://www.w3.org/2000/svg" xmlns:xlink="http://www.w3.org/1999/xlink" x="0px" y="0px"
	 width="720px" height="540px" viewBox="0 0 720 540" enable-background="new 0 0 720 540" xml:space="preserve">
<g>
	<path fill="#ED1556" d="M422.71,280.595c34.188-34.18,34.188-89.806-0.008-123.989c-34.184-34.194-89.804-34.194-123.994,0
		c-34.188,34.184-34.188,89.809-0.005,123.989c19.991,19.989,47.315,28.271,73.4,24.877l22.025,21.84l4.15,4.229v-0.115l0,0l0,0
		l-0.026-33.61C407.102,293.635,415.401,287.905,422.71,280.595z M405.622,173.68c24.764,24.777,24.764,65.07,0.008,89.822
		c-2.346,2.342-4.816,4.458-7.407,6.352l0.022-85.138l-91.34,0.146c2.487-3.968,5.442-7.729,8.892-11.182
		C340.558,148.922,380.858,148.922,405.622,173.68z M373.878,272.786l-64.486-64.476l64.524,0.045L373.878,272.786z
		 M315.787,263.508c-8.731-8.74-14.377-19.402-16.949-30.641l48.142,47.71C335.542,278.06,324.667,272.385,315.787,263.508z"/>
	<g>
		<path fill="#ED1556" d="M279.657,412.342c-12.921,0-25.064-6.804-25.287-23.396h14.481c0.226,7.135,5.124,10.362,10.806,10.362
			c6.244,0,10.692-3.902,10.692-11.026c0-6.574-4.009-10.922-11.141-10.922h-2.119v-12.59h2.119c7.025,0,10.034-4.341,10.034-9.909
			c0-6.685-4.46-10.141-9.699-10.141c-5.454,0-9.472,3.565-9.799,9.584h-14.479c0.326-14.148,10.909-22.613,24.278-22.613
			c14.037,0,24.181,9.357,24.181,22.729c0,8.574-3.903,13.476-9.141,16.264c5.681,3.01,10.248,8.459,10.248,18.04
			C304.831,404.539,293.248,412.342,279.657,412.342z"/>
		<g>
			<path fill="#4F91CD" d="M344.145,405.886c-1.623-1.624-2.944-3.287-4.016-5.02h-17.772v-68.514h-12.028v79.321h41.595
				C349.122,410.191,346.522,408.26,344.145,405.886z"/>
			<path fill="#4F91CD" d="M391.636,403.382c-5.443,5.433-12.423,8.425-20.849,8.425c-8.429,0-15.295-2.992-20.733-8.425
				c-7.758-7.759-7.651-16.521-7.651-31.706c0-15.191-0.107-23.951,7.651-31.714c5.438-5.429,12.304-8.421,20.733-8.421
				c8.426,0,15.405,2.992,20.849,8.421c7.756,7.763,7.536,16.522,7.536,31.714C399.172,386.861,399.392,395.623,391.636,403.382z
				 M382.541,347.169c-2.772-2.992-7.101-4.876-11.754-4.876c-4.652,0-8.98,1.884-11.756,4.876
				c-3.878,4.216-4.651,8.648-4.651,24.507c0,15.854,0.773,20.285,4.651,24.499c2.776,2.992,7.104,4.876,11.756,4.876
				c4.653,0,8.981-1.884,11.754-4.876c3.878-4.214,4.65-8.645,4.65-24.499C387.191,355.817,386.419,351.385,382.541,347.169z"/>
		</g>
		<g>
			<g>
				<path fill="#4F91CD" d="M453.97,403.382c-5.425,5.433-12.408,8.425-20.837,8.425c-8.425,0-15.299-2.992-20.731-8.425
					c-7.763-7.759-7.646-16.521-7.646-31.706c0-15.191-0.117-23.951,7.646-31.714c5.433-5.429,12.307-8.421,20.731-8.421
					c8.429,0,15.412,2.992,20.837,8.421c7.771,7.763,7.551,16.522,7.551,31.714C461.521,386.861,461.74,395.623,453.97,403.382z
					 M444.887,347.169c-2.773-2.992-7.094-4.876-11.754-4.876c-4.657,0-8.985,1.884-11.754,4.876
					c-3.878,4.216-4.649,8.648-4.649,24.507c0,15.854,0.771,20.285,4.649,24.499c2.769,2.992,7.097,4.876,11.754,4.876
					c4.66,0,8.98-1.884,11.754-4.876c3.877-4.214,4.653-8.645,4.653-24.499C449.54,355.817,448.764,351.385,444.887,347.169z"/>
			</g>
			<polygon fill="#4F91CD" points="423.236,375.782 437.32,375.782 466.499,411.674 453.021,411.807 			"/>
		</g>
	</g>
</g>
</svg>
